<svg width="1793" height="227" viewBox="0 0 1793 227" fill="none" xmlns="http://www.w3.org/2000/svg">
<path d="M864.587 182.961C815.492 182.961 765.792 175.571 716.425 160.9C668.477 146.652 620.735 125.543 574.524 98.1596C501.754 55.0379 455.572 9.58677 448.675 2.61546C422.611 44.1172 383.024 76.8636 330.995 99.952C289.065 118.56 239.001 130.972 182.197 136.844C85.5316 146.84 1.68438 134.23 0.848685 134.101C0.586511 134.061 0.351021 133.917 0.194022 133.703C0.0370226 133.488 -0.0286182 133.219 0.0115264 132.956C0.0516709 132.693 0.194315 132.456 0.408087 132.299C0.621859 132.141 0.889245 132.075 1.15142 132.115C1.9848 132.244 85.6168 144.817 182.035 134.842C270.897 125.649 389.114 94.8752 447.651 0.473301C447.732 0.343511 447.841 0.2339 447.97 0.152819C448.099 0.0717385 448.245 0.0213333 448.396 0.0054403C448.548 -0.0104527 448.701 0.00858597 448.844 0.0611106C448.987 0.113635 449.116 0.19826 449.222 0.308527C449.692 0.79993 497.136 49.9783 575.594 96.4612C647.969 139.34 762.295 188.631 895.936 179.937C896.201 179.92 896.461 180.009 896.66 180.185C896.859 180.36 896.981 180.608 896.998 180.874C897.015 181.14 896.926 181.401 896.752 181.602C896.577 181.802 896.33 181.924 896.065 181.941C885.607 182.622 875.114 182.961 864.587 182.961Z" fill="#CCCCCC"/>
<path d="M112.522 185.828C112.012 185.8 111.524 185.612 111.126 185.292C110.727 184.971 110.438 184.533 110.3 184.039L97.4469 140.679C97.3383 140.312 97.3143 139.926 97.377 139.549C97.4396 139.172 97.5872 138.814 97.8084 138.503C98.0295 138.192 98.3185 137.936 98.6533 137.754C98.9881 137.572 99.3597 137.469 99.74 137.453L125.923 136.371C126.321 136.355 126.718 136.434 127.079 136.603C127.441 136.772 127.757 137.025 128.001 137.342C128.245 137.658 128.411 138.028 128.484 138.422C128.556 138.816 128.534 139.221 128.42 139.604L115.089 184.047C114.941 184.568 114.626 185.026 114.192 185.349C113.759 185.672 113.231 185.842 112.692 185.834C112.635 185.834 112.578 185.832 112.522 185.828Z" fill="#E6E6E6"/>
<path d="M238.555 176.307C238.047 176.361 237.535 176.255 237.09 176.003C236.645 175.751 236.29 175.366 236.074 174.901L216.438 134.185C216.272 133.841 216.186 133.463 216.188 133.081C216.189 132.698 216.277 132.322 216.446 131.979C216.614 131.636 216.858 131.336 217.159 131.103C217.461 130.869 217.811 130.707 218.184 130.63L243.852 125.328C244.242 125.247 244.646 125.262 245.03 125.37C245.414 125.478 245.766 125.677 246.058 125.949C246.35 126.222 246.573 126.561 246.708 126.938C246.843 127.315 246.886 127.718 246.834 128.115L240.803 174.134C240.74 174.672 240.502 175.175 240.126 175.564C239.75 175.952 239.257 176.206 238.723 176.285C238.667 176.294 238.61 176.301 238.555 176.307Z" fill="#E6E6E6"/>
<path d="M377.434 128.625C376.963 128.824 376.442 128.871 375.944 128.758C375.446 128.645 374.995 128.378 374.655 127.995L344.186 94.675C343.928 94.3934 343.738 94.0566 343.63 93.69C343.522 93.3235 343.498 92.937 343.561 92.56C343.625 92.183 343.773 91.8255 343.994 91.5147C344.216 91.2038 344.505 90.9479 344.84 90.7664L367.904 78.2711C368.255 78.0811 368.646 77.9781 369.044 77.9708C369.443 77.9634 369.837 78.0518 370.195 78.2287C370.553 78.4056 370.863 78.6658 371.1 78.9877C371.337 79.3095 371.494 79.6836 371.558 80.0788L378.964 125.894C379.058 126.428 378.974 126.978 378.725 127.459C378.477 127.94 378.077 128.326 377.588 128.556C377.537 128.58 377.485 128.604 377.434 128.625Z" fill="#E6E6E6"/>
<path d="M820.706 226.956C820.202 226.87 819.738 226.629 819.377 226.265C819.017 225.902 818.779 225.434 818.696 224.928L810.755 180.395C810.688 180.019 810.708 179.632 810.812 179.265C810.916 178.897 811.103 178.558 811.357 178.274C811.612 177.989 811.927 177.767 812.28 177.624C812.633 177.481 813.014 177.421 813.394 177.448L839.533 179.315C839.93 179.344 840.315 179.468 840.656 179.676C840.996 179.884 841.282 180.171 841.49 180.513C841.697 180.855 841.82 181.242 841.849 181.641C841.877 182.04 841.81 182.441 841.653 182.809L823.455 225.474C823.25 225.975 822.885 226.394 822.418 226.667C821.952 226.939 821.409 227.049 820.873 226.98C820.817 226.973 820.761 226.965 820.706 226.956Z" fill="#E6E6E6"/>
<path d="M681.19 197.788C680.718 197.593 680.319 197.254 680.048 196.819C679.777 196.384 679.648 195.875 679.679 195.363L681.774 150.171C681.792 149.789 681.896 149.416 682.079 149.081C682.262 148.746 682.518 148.457 682.829 148.236C683.14 148.016 683.497 147.869 683.873 147.808C684.249 147.748 684.633 147.774 684.997 147.885L710.072 155.531C710.454 155.647 710.802 155.854 711.088 156.133C711.374 156.412 711.589 156.755 711.716 157.135C711.843 157.514 711.877 157.919 711.817 158.315C711.756 158.711 711.603 159.086 711.368 159.41L684.198 196.956C683.887 197.399 683.439 197.727 682.924 197.888C682.409 198.05 681.855 198.036 681.348 197.849C681.295 197.83 681.242 197.81 681.19 197.788Z" fill="#E6E6E6"/>
<path d="M537.647 132.172C537.238 131.865 536.936 131.436 536.781 130.948C536.627 130.459 536.629 129.933 536.786 129.445L550.047 86.209C550.159 85.8437 550.353 85.5088 550.613 85.2301C550.874 84.9513 551.194 84.7359 551.55 84.6003C551.906 84.4647 552.288 84.4126 552.667 84.4478C553.046 84.483 553.412 84.6047 553.737 84.8035L576.117 98.4947C576.458 98.703 576.744 98.9901 576.951 99.332C577.159 99.6739 577.282 100.061 577.31 100.46C577.339 100.859 577.272 101.26 577.115 101.628C576.958 101.996 576.716 102.321 576.408 102.576L540.767 132.121C540.355 132.472 539.84 132.677 539.301 132.704C538.762 132.731 538.229 132.579 537.785 132.271C537.738 132.239 537.692 132.206 537.647 132.172Z" fill="#E6E6E6"/>
<path d="M928.027 182.623C977.122 182.623 1026.82 175.265 1076.19 160.658C1124.14 146.472 1171.88 125.455 1218.09 98.1912C1290.86 55.2576 1337.04 10.0047 1343.94 3.06377C1370 44.3846 1409.59 76.9881 1461.62 99.9759C1503.55 118.502 1553.61 130.861 1610.42 136.707C1707.08 146.659 1790.93 134.104 1791.76 133.976C1792.03 133.936 1792.26 133.793 1792.42 133.579C1792.58 133.366 1792.64 133.098 1792.6 132.836C1792.56 132.574 1792.42 132.338 1792.2 132.181C1791.99 132.024 1791.72 131.959 1791.46 131.999C1790.63 132.127 1707 144.645 1610.58 134.714C1521.72 125.561 1403.5 94.9212 1344.96 0.930954C1344.88 0.80173 1344.77 0.692597 1344.64 0.61187C1344.51 0.531142 1344.37 0.480957 1344.22 0.465133C1344.07 0.44931 1343.91 0.468265 1343.77 0.520561C1343.63 0.572857 1343.5 0.657112 1343.39 0.766899C1342.92 1.25616 1295.48 50.22 1217.02 96.5003C1144.64 139.192 1030.32 188.268 896.677 179.612C896.413 179.595 896.152 179.684 895.953 179.859C895.754 180.034 895.633 180.28 895.616 180.545C895.598 180.81 895.687 181.07 895.862 181.269C896.037 181.469 896.284 181.59 896.548 181.608C907.007 182.285 917.5 182.623 928.027 182.623Z" fill="#CCCCCC"/>
<path d="M1680.09 185.478C1680.6 185.449 1681.09 185.263 1681.49 184.943C1681.89 184.624 1682.17 184.188 1682.31 183.696L1695.17 140.525C1695.27 140.16 1695.3 139.775 1695.24 139.4C1695.17 139.025 1695.03 138.668 1694.8 138.359C1694.58 138.049 1694.29 137.794 1693.96 137.613C1693.62 137.432 1693.25 137.329 1692.87 137.314L1666.69 136.236C1666.29 136.22 1665.9 136.299 1665.53 136.467C1665.17 136.635 1664.86 136.887 1664.61 137.202C1664.37 137.517 1664.2 137.886 1664.13 138.278C1664.06 138.67 1664.08 139.074 1664.19 139.455L1677.52 183.704C1677.67 184.223 1677.99 184.679 1678.42 185C1678.85 185.322 1679.38 185.492 1679.92 185.483C1679.98 185.483 1680.03 185.481 1680.09 185.478Z" fill="#E6E6E6"/>
<path d="M1554.06 175.998C1554.57 176.052 1555.08 175.946 1555.52 175.695C1555.97 175.444 1556.32 175.06 1556.54 174.598L1576.18 134.059C1576.34 133.717 1576.43 133.341 1576.43 132.96C1576.42 132.579 1576.34 132.204 1576.17 131.863C1576 131.521 1575.75 131.223 1575.45 130.99C1575.15 130.758 1574.8 130.597 1574.43 130.52L1548.76 125.241C1548.37 125.161 1547.97 125.175 1547.58 125.283C1547.2 125.39 1546.85 125.588 1546.55 125.86C1546.26 126.131 1546.04 126.469 1545.91 126.844C1545.77 127.219 1545.73 127.621 1545.78 128.016L1551.81 173.834C1551.87 174.37 1552.11 174.87 1552.49 175.258C1552.86 175.645 1553.36 175.897 1553.89 175.976C1553.95 175.985 1554 175.992 1554.06 175.998Z" fill="#E6E6E6"/>
<path d="M1415.18 128.524C1415.65 128.722 1416.17 128.768 1416.67 128.656C1417.17 128.543 1417.62 128.278 1417.96 127.897L1448.43 94.7219C1448.68 94.4415 1448.87 94.1062 1448.98 93.7412C1449.09 93.3763 1449.11 92.9915 1449.05 92.6162C1448.99 92.2408 1448.84 91.8848 1448.62 91.5753C1448.4 91.2659 1448.11 91.011 1447.77 90.8303L1424.71 78.3895C1424.36 78.2004 1423.97 78.0978 1423.57 78.0905C1423.17 78.0832 1422.78 78.1712 1422.42 78.3474C1422.06 78.5235 1421.75 78.7826 1421.51 79.103C1421.28 79.4234 1421.12 79.7959 1421.05 80.1893L1413.65 125.805C1413.56 126.337 1413.64 126.884 1413.89 127.363C1414.14 127.842 1414.54 128.226 1415.02 128.455C1415.08 128.479 1415.13 128.503 1415.18 128.524Z" fill="#E6E6E6"/>
<path d="M971.907 226.425C972.411 226.34 972.876 226.1 973.236 225.738C973.596 225.376 973.834 224.911 973.917 224.407L981.858 180.068C981.925 179.693 981.906 179.308 981.801 178.942C981.697 178.576 981.511 178.239 981.256 177.956C981.002 177.673 980.686 177.452 980.333 177.309C979.98 177.167 979.599 177.107 979.22 177.133L953.081 178.993C952.683 179.021 952.298 179.144 951.957 179.352C951.617 179.559 951.331 179.845 951.124 180.186C950.916 180.526 950.793 180.911 950.765 181.309C950.736 181.706 950.803 182.105 950.96 182.471L969.158 224.95C969.364 225.449 969.728 225.867 970.195 226.138C970.662 226.409 971.205 226.519 971.74 226.45C971.796 226.443 971.852 226.435 971.907 226.425Z" fill="#E6E6E6"/>
<path d="M1111.42 197.385C1111.9 197.19 1112.29 196.853 1112.57 196.42C1112.84 195.987 1112.97 195.481 1112.93 194.971L1110.84 149.975C1110.82 149.595 1110.72 149.224 1110.53 148.89C1110.35 148.557 1110.09 148.269 1109.78 148.049C1109.47 147.83 1109.12 147.684 1108.74 147.624C1108.36 147.563 1107.98 147.589 1107.62 147.699L1082.54 155.312C1082.16 155.428 1081.81 155.634 1081.53 155.911C1081.24 156.189 1081.02 156.531 1080.9 156.909C1080.77 157.287 1080.74 157.69 1080.8 158.084C1080.86 158.478 1081.01 158.852 1081.24 159.174L1108.41 196.557C1108.73 196.998 1109.17 197.324 1109.69 197.485C1110.2 197.645 1110.76 197.632 1111.26 197.446C1111.32 197.427 1111.37 197.407 1111.42 197.385Z" fill="#E6E6E6"/>
<path d="M1254.97 132.056C1255.37 131.749 1255.68 131.323 1255.83 130.836C1255.99 130.349 1255.98 129.826 1255.83 129.341L1242.57 86.2928C1242.45 85.9291 1242.26 85.5957 1242 85.3181C1241.74 85.0405 1241.42 84.8261 1241.06 84.6911C1240.71 84.5561 1240.33 84.5042 1239.95 84.5393C1239.57 84.5743 1239.2 84.6954 1238.88 84.8934L1216.5 98.5249C1216.16 98.7323 1215.87 99.0182 1215.66 99.3586C1215.45 99.6989 1215.33 100.084 1215.3 100.482C1215.27 100.879 1215.34 101.278 1215.5 101.644C1215.66 102.011 1215.9 102.334 1216.21 102.588L1251.85 132.005C1252.26 132.354 1252.77 132.558 1253.31 132.585C1253.85 132.612 1254.38 132.461 1254.83 132.154C1254.88 132.123 1254.92 132.09 1254.97 132.056Z" fill="#E6E6E6"/>
</svg>
