<svg width="355" height="409" viewBox="0 0 355 409" fill="none" xmlns="http://www.w3.org/2000/svg">
<g filter="url(#filter0_d_177_187)">
<path d="M111.18 5.9608L117.152 13.3054L132.544 10.7807L140.147 3L154.873 7.33792L160.11 16.9088L150.6 36.6014L160.386 37.0375L167.186 46.6313L179.82 47.733L189.56 56.2711L196.314 54.0218L204.056 57.3727L202.838 72.5668L209.316 72.2914L210.189 75.4817L203.206 77.8458L212.05 78.9015L206.077 84.5476L192.11 82.6427L194.017 88.5872L187.378 91.1348L185.908 97.1022L191.031 96.2301L200.564 108.44L225.833 105.87L215.036 111.837L214.967 116.129L272.466 120.697L295.393 96.8728L305.018 105.158L320.111 93.5677L324.108 94.8071L322.844 102.863L329.644 107.476H330.655L326.749 117.277L342.531 119.136L341.084 126.641L346 129.372L309.199 161.092L219.746 285.077L227.763 292.927L234.609 321.226L233.69 345.647L230.221 349.296L234.7 352.555L229.187 361.162L230.795 363.412L235.918 359.579L233.621 364.674L240.627 364.858L246.278 374.658L254.686 377.94L251.263 384.298L254.663 396.898L248.69 398L237.894 387.167L225.512 390.127L212.303 377.94L199.852 380.258L189.078 377.389L181.405 367.749L174.537 369.632L161.557 365.913L161.259 359.418L156.435 361.277L136.679 352.211L134.359 338.876L124.48 324.371L116.188 323.889L107.435 315.121L101.256 317.807L100.222 322.971L90.7345 310.508L81.9363 309.498L78.2148 302.865L55.9319 310.232L45.0891 305.986L44.0554 294.74L48.2592 292.743L39.7366 281.933L41.6892 276.493L34.9355 272.201L40.9081 260.175L39.2312 248.79L33.5111 236.649L26.5966 235.685L24.0467 231.209L11.5269 230.888L13.2728 222.603L9 217.232L21.9103 214.523L22.3008 207.317L29.3303 207.707L31.168 204.126L28.8938 199.49L15.6619 198.503L11.1823 186.132L17.1321 176.538L11.3661 170.479L16.6727 166.531L13.8471 163.02L18.4415 161.941L17.0861 155.652L11.2283 154.114L15.2943 153.173L10.7918 151.911L14.1917 136.924L9.87295 126.871L20.0955 114.913L18.7171 106.053L19.2914 105.985L20.44 105.158L33.3963 91.2266L52.0726 83.6525L52.4402 76.0325L73.4826 70.3635L83.8429 50.4872L95.5357 40.8704L99.9234 43.2574L111.18 5.9608Z" fill="white" stroke="#FF4219" stroke-width="5"/>
<circle cx="205" cy="237" r="63.5" fill="#FF4219" fill-opacity="0.33" stroke="#FF4219"/>
<circle cx="204.5" cy="241.5" r="1.5" fill="#FF4219"/>
<rect x="171" y="223" width="70" height="15" fill="#FF4219"/>
<path d="M174.469 233V225.727H177.608C178.148 225.727 178.62 225.826 179.025 226.022C179.43 226.219 179.745 226.501 179.969 226.871C180.194 227.24 180.307 227.683 180.307 228.199C180.307 228.72 180.191 229.159 179.959 229.516C179.729 229.874 179.406 230.144 178.989 230.326C178.575 230.508 178.091 230.599 177.537 230.599H175.662V229.065H177.139C177.371 229.065 177.569 229.037 177.732 228.98C177.898 228.921 178.025 228.827 178.112 228.7C178.202 228.572 178.247 228.405 178.247 228.199C178.247 227.991 178.202 227.821 178.112 227.691C178.025 227.558 177.898 227.461 177.732 227.4C177.569 227.336 177.371 227.304 177.139 227.304H176.443V233H174.469ZM178.73 229.662L180.548 233H178.403L176.628 229.662H178.73ZM184.714 230.614V227.545H186.674V233H184.813V231.963H184.756C184.638 232.311 184.431 232.583 184.135 232.78C183.839 232.974 183.487 233.071 183.08 233.071C182.699 233.071 182.365 232.983 182.079 232.808C181.795 232.633 181.573 232.392 181.415 232.084C181.259 231.776 181.179 231.423 181.177 231.026V227.545H183.137V230.614C183.139 230.884 183.208 231.095 183.343 231.249C183.48 231.403 183.672 231.48 183.918 231.48C184.082 231.48 184.223 231.446 184.341 231.377C184.462 231.306 184.554 231.207 184.618 231.079C184.684 230.949 184.716 230.794 184.714 230.614ZM192.657 229.321H190.853C190.843 229.21 190.804 229.114 190.736 229.033C190.667 228.953 190.578 228.891 190.469 228.849C190.363 228.804 190.244 228.781 190.114 228.781C189.946 228.781 189.802 228.812 189.681 228.874C189.56 228.935 189.501 229.023 189.503 229.136C189.501 229.217 189.535 229.291 189.606 229.36C189.68 229.429 189.821 229.482 190.029 229.52L191.137 229.719C191.696 229.821 192.111 229.992 192.383 230.234C192.658 230.473 192.796 230.794 192.799 231.196C192.796 231.584 192.68 231.922 192.451 232.208C192.224 232.492 191.912 232.712 191.517 232.869C191.124 233.022 190.675 233.099 190.171 233.099C189.338 233.099 188.685 232.929 188.214 232.588C187.746 232.247 187.484 231.797 187.43 231.239H189.376C189.402 231.411 189.487 231.545 189.631 231.64C189.778 231.732 189.963 231.778 190.185 231.778C190.365 231.778 190.513 231.748 190.629 231.686C190.747 231.625 190.808 231.537 190.81 231.423C190.808 231.319 190.756 231.236 190.654 231.175C190.555 231.113 190.398 231.063 190.185 231.026L189.219 230.855C188.663 230.758 188.246 230.573 187.969 230.301C187.692 230.029 187.555 229.679 187.557 229.25C187.555 228.871 187.654 228.55 187.856 228.288C188.059 228.022 188.349 227.821 188.726 227.684C189.104 227.544 189.553 227.474 190.072 227.474C190.86 227.474 191.481 227.638 191.936 227.964C192.393 228.291 192.633 228.743 192.657 229.321ZM193.607 233V231.92L195.993 229.065V229.037H193.692V227.545H198.308V228.739L196.135 231.48V231.509H198.394V233H193.607ZM201.935 233.099C201.353 233.099 200.851 232.988 200.429 232.766C200.01 232.541 199.687 232.219 199.46 231.8C199.235 231.378 199.123 230.874 199.123 230.287C199.123 229.723 199.236 229.231 199.463 228.81C199.691 228.388 200.011 228.06 200.426 227.826C200.84 227.592 201.329 227.474 201.892 227.474C202.304 227.474 202.677 227.538 203.011 227.666C203.345 227.794 203.63 227.98 203.867 228.224C204.104 228.465 204.286 228.759 204.414 229.104C204.542 229.45 204.605 229.839 204.605 230.273V230.727H199.733V229.648H202.801C202.799 229.491 202.759 229.354 202.681 229.236C202.605 229.115 202.502 229.022 202.372 228.955C202.244 228.887 202.098 228.852 201.935 228.852C201.776 228.852 201.631 228.887 201.498 228.955C201.366 229.022 201.259 229.114 201.179 229.232C201.1 229.351 201.059 229.489 201.054 229.648V230.812C201.054 230.988 201.091 231.144 201.164 231.281C201.238 231.419 201.343 231.526 201.48 231.604C201.618 231.683 201.783 231.722 201.978 231.722C202.113 231.722 202.236 231.703 202.347 231.665C202.461 231.627 202.558 231.572 202.638 231.501C202.719 231.428 202.778 231.34 202.816 231.239H204.605C204.544 231.617 204.398 231.946 204.169 232.226C203.939 232.503 203.635 232.718 203.256 232.872C202.88 233.024 202.439 233.099 201.935 233.099ZM207.366 225.727V233H205.405V225.727H207.366ZM210.992 233.099C210.4 233.099 209.894 232.982 209.472 232.748C209.051 232.511 208.728 232.182 208.503 231.761C208.278 231.337 208.165 230.846 208.165 230.287C208.165 229.728 208.278 229.238 208.503 228.817C208.728 228.393 209.051 228.064 209.472 227.83C209.894 227.593 210.4 227.474 210.992 227.474C211.527 227.474 211.99 227.571 212.381 227.766C212.774 227.957 213.078 228.23 213.293 228.582C213.509 228.933 213.618 229.345 213.62 229.818H211.802C211.776 229.532 211.693 229.314 211.553 229.165C211.416 229.013 211.238 228.938 211.021 228.938C210.85 228.938 210.701 228.987 210.573 229.087C210.445 229.184 210.346 229.332 210.275 229.531C210.204 229.727 210.168 229.974 210.168 230.273C210.168 230.571 210.204 230.82 210.275 231.018C210.346 231.215 210.445 231.363 210.573 231.462C210.701 231.559 210.85 231.608 211.021 231.608C211.165 231.608 211.293 231.575 211.404 231.509C211.515 231.44 211.605 231.34 211.674 231.21C211.745 231.078 211.788 230.917 211.802 230.727H213.62C213.613 231.208 213.503 231.627 213.29 231.984C213.077 232.339 212.775 232.614 212.384 232.808C211.996 233.002 211.532 233.099 210.992 233.099ZM214.486 233V231.92L216.872 229.065V229.037H214.571V227.545H219.187V228.739L217.014 231.48V231.509H219.273V233H214.486ZM221.55 235.045C221.325 235.045 221.111 235.028 220.907 234.992C220.703 234.959 220.525 234.913 220.371 234.854L220.797 233.462C220.958 233.518 221.105 233.555 221.237 233.572C221.372 233.588 221.487 233.579 221.582 233.543C221.679 233.508 221.749 233.44 221.791 233.341L221.834 233.241L219.916 227.545H221.962L222.842 231.324H222.899L223.794 227.545H225.854L223.865 233.455C223.766 233.755 223.621 234.025 223.432 234.264C223.245 234.506 222.999 234.696 222.693 234.836C222.388 234.976 222.007 235.045 221.55 235.045ZM228.873 233.099C228.281 233.099 227.775 232.982 227.353 232.748C226.932 232.511 226.609 232.182 226.384 231.761C226.159 231.337 226.046 230.846 226.046 230.287C226.046 229.728 226.159 229.238 226.384 228.817C226.609 228.393 226.932 228.064 227.353 227.83C227.775 227.593 228.281 227.474 228.873 227.474C229.408 227.474 229.871 227.571 230.262 227.766C230.655 227.957 230.959 228.23 231.174 228.582C231.39 228.933 231.499 229.345 231.501 229.818H229.683C229.657 229.532 229.574 229.314 229.434 229.165C229.297 229.013 229.119 228.938 228.901 228.938C228.731 228.938 228.582 228.987 228.454 229.087C228.326 229.184 228.227 229.332 228.156 229.531C228.085 229.727 228.049 229.974 228.049 230.273C228.049 230.571 228.085 230.82 228.156 231.018C228.227 231.215 228.326 231.363 228.454 231.462C228.582 231.559 228.731 231.608 228.901 231.608C229.046 231.608 229.174 231.575 229.285 231.509C229.396 231.44 229.486 231.34 229.555 231.21C229.626 231.078 229.669 230.917 229.683 230.727H231.501C231.494 231.208 231.384 231.627 231.171 231.984C230.958 232.339 230.656 232.614 230.265 232.808C229.877 233.002 229.413 233.099 228.873 233.099ZM234.923 233.099C234.341 233.099 233.839 232.988 233.418 232.766C232.999 232.541 232.675 232.219 232.448 231.8C232.223 231.378 232.111 230.874 232.111 230.287C232.111 229.723 232.224 229.231 232.452 228.81C232.679 228.388 233 228.06 233.414 227.826C233.828 227.592 234.317 227.474 234.881 227.474C235.293 227.474 235.665 227.538 235.999 227.666C236.333 227.794 236.618 227.98 236.855 228.224C237.092 228.465 237.274 228.759 237.402 229.104C237.53 229.45 237.594 229.839 237.594 230.273V230.727H232.722V229.648H235.79C235.787 229.491 235.747 229.354 235.669 229.236C235.593 229.115 235.49 229.022 235.36 228.955C235.232 228.887 235.087 228.852 234.923 228.852C234.765 228.852 234.619 228.887 234.487 228.955C234.354 229.022 234.247 229.114 234.167 229.232C234.089 229.351 234.047 229.489 234.043 229.648V230.812C234.043 230.988 234.079 231.144 234.153 231.281C234.226 231.419 234.331 231.526 234.469 231.604C234.606 231.683 234.772 231.722 234.966 231.722C235.101 231.722 235.224 231.703 235.335 231.665C235.449 231.627 235.546 231.572 235.626 231.501C235.707 231.428 235.766 231.34 235.804 231.239H237.594C237.532 231.617 237.387 231.946 237.157 232.226C236.927 232.503 236.623 232.718 236.244 232.872C235.868 233.024 235.428 233.099 234.923 233.099Z" fill="white"/>
</g>
<defs>
<filter id="filter0_d_177_187" x="0.520508" y="0.176758" width="353.825" height="408.521" filterUnits="userSpaceOnUse" color-interpolation-filters="sRGB">
<feFlood flood-opacity="0" result="BackgroundImageFix"/>
<feColorMatrix in="SourceAlpha" type="matrix" values="0 0 0 0 0 0 0 0 0 0 0 0 0 0 0 0 0 0 127 0" result="hardAlpha"/>
<feOffset dy="4"/>
<feGaussianBlur stdDeviation="2"/>
<feComposite in2="hardAlpha" operator="out"/>
<feColorMatrix type="matrix" values="0 0 0 0 0 0 0 0 0 0 0 0 0 0 0 0 0 0 0.25 0"/>
<feBlend mode="normal" in2="BackgroundImageFix" result="effect1_dropShadow_177_187"/>
<feBlend mode="normal" in="SourceGraphic" in2="effect1_dropShadow_177_187" result="shape"/>
</filter>
</defs>
</svg>
