<svg width="800" height="800" viewBox="0 0 800 800" fill="none" xmlns="http://www.w3.org/2000/svg">
<path d="M688.588 310.662C676.375 226.375 626.175 168.087 542.2 134.787C556.512 127.225 565.763 123.437 565.763 123.437C525.313 109.187 490.2 100.887 459.8 97.1125C475.788 85.075 486.462 80.5 486.462 80.5C239.562 45.675 117.812 183 110.162 310.85C61.7875 319.337 25 361.375 25 412.113C25 462.325 61.0375 504.037 108.7 513.112C114.15 630.8 242.45 725 399.988 725C557.55 725 685.85 630.8 691.3 513.112C738.95 504.025 775 462.3 775 412.113C775 360.963 737.563 318.637 688.588 310.662ZM111.263 476.712C82.3875 469.212 60.975 443.275 60.975 412.113C60.975 381.913 81.1375 356.637 108.675 348.287C109.288 375.312 116.4 401.15 128.85 424.963C120.371 441.21 114.439 458.663 111.263 476.712ZM556.85 499.05C573.45 519.75 583.175 543.925 583.175 569.862C583.175 645.887 501.15 707.487 399.988 707.487C298.825 707.487 216.812 645.887 216.812 569.862C216.812 543.925 226.525 519.75 243.15 499.05C186.187 464.575 149.725 411.8 149.725 352.562C149.725 140.887 399.988 275.737 399.988 275.737C399.988 275.737 650.262 140.9 650.262 352.562C650.262 411.787 613.8 464.575 556.85 499.05ZM688.737 476.712C685.556 458.662 679.629 441.206 671.163 424.95C683.613 401.137 690.712 375.3 691.325 348.275C718.862 356.637 739.012 381.9 739.012 412.1C739.012 443.275 717.612 469.212 688.737 476.712Z" fill="white"/>
<path d="M426.812 510.038C433.725 510.038 439.312 498.55 439.312 484.325C439.312 470.163 433.725 458.588 426.812 458.588C419.887 458.588 414.312 470.163 414.312 484.325C414.312 498.55 419.887 510.038 426.812 510.038Z" fill="white"/>
<path d="M373.162 510.038C380.075 510.038 385.662 498.55 385.662 484.325C385.662 470.163 380.075 458.588 373.162 458.588C366.237 458.588 360.662 470.163 360.662 484.325C360.662 498.55 366.237 510.038 373.162 510.038Z" fill="white"/>
<path d="M508.525 453.075C532.688 453.075 552.275 427.891 552.275 396.825C552.275 365.759 532.688 340.575 508.525 340.575C484.363 340.575 464.775 365.759 464.775 396.825C464.775 427.891 484.363 453.075 508.525 453.075Z" fill="white"/>
<path d="M291.475 453.075C315.637 453.075 335.225 427.891 335.225 396.825C335.225 365.759 315.637 340.575 291.475 340.575C267.312 340.575 247.725 365.759 247.725 396.825C247.725 427.891 267.312 453.075 291.475 453.075Z" fill="white"/>
<path d="M399.975 567.987C341.363 567.987 281.738 552.1 276.913 556.212C259.1 571.387 313.713 642.95 399.975 643.425C486.225 642.987 540.875 571.4 523.025 556.212C518.2 552.112 458.6 568 399.975 567.987Z" fill="white"/>
</svg>
