<svg xmlns="http://www.w3.org/2000/svg" width="1920" height="858" viewBox="0 0 1920 858" fill="none">
<g clip-path="url(#clip0_485_547)">
<path d="M-8.65869 55.185C2.16269 177.994 -4.1767 846.577 -4.1767 846.577C-4.1767 846.577 643.047 852.225 953.202 814.603C1330.49 768.835 1814.88 759.547 1930.87 783.551V0.525579C1887.57 -3.71302 1136.88 18.4014 930.005 41.0687C749.746 60.815 -8.65869 55.185 -8.65869 55.185Z" fill="url(#paint0_linear_485_547)"/>
<path opacity="0.5" d="M-20.4293 511.847C-74.1425 662.741 -51.5811 786.849 10.4702 812.318C73.0565 837.98 182.078 766.062 228.372 682.534C275.331 597.762 177.293 543.176 211.372 424.394C232.954 349.224 279.278 325.58 262.37 281.959C243.735 233.842 167.824 211.81 113.98 211.432C21.655 210.741 -36.5099 273.666 -45.161 283.332" fill="url(#paint1_linear_485_547)"/>
<path opacity="0.7" d="M-38.6296 631.026C-74.8388 732.678 -59.6162 816.28 -17.8045 833.437C24.3302 850.732 97.8086 802.284 128.981 746.012C160.617 688.883 94.5682 652.136 117.533 572.109C132.07 521.431 163.272 505.545 151.855 476.133C139.297 443.708 88.1582 428.873 51.9187 428.615C-10.2942 428.182 -49.4813 470.567 -55.3058 477.082" fill="url(#paint2_linear_485_547)"/>

</g>
<defs>
<linearGradient id="paint0_linear_485_547" x1="-8.65869" y1="423.436" x2="1930.87" y2="423.436" gradientUnits="userSpaceOnUse">
<stop stop-color="#7ed56f"/>
<stop offset="1" stop-color="#28b473"/>
</linearGradient>
<linearGradient id="paint1_linear_485_547" x1="-50.6726" y1="514.483" x2="266.014" y2="514.483" gradientUnits="userSpaceOnUse">
<stop stop-color="#4DDF63"/>
<stop offset="0.24" stop-color="#7ed56f"/>
<stop offset="1" stop-color="#9DFF8A"/>
</linearGradient>
<linearGradient id="paint2_linear_485_547" x1="-59.0005" y1="632.804" x2="154.338" y2="632.804" gradientUnits="userSpaceOnUse">
<stop stop-color="#4DDF63"/>
<stop offset="0.51" stop-color="#8FF088"/>
<stop offset="1" stop-color="#CBFFAA"/>
</linearGradient>
<linearGradient id="paint3_linear_485_547" x1="1938.22" y1="0.384412" x2="1937.62" y2="145.012" gradientUnits="userSpaceOnUse">
<stop stop-color="#4DDF63"/>
<stop offset="0.64" stop-color="#C3E0B5"/>
<stop offset="1" stop-color="#FFE0DF"/>
</linearGradient>
<clipPath id="clip0_485_547">
<rect width="1920" height="858" fill="white"/>
</clipPath>
</defs>
</svg>